# Blender 4.4.3
# www.blender.org
mtllib duck.mtl
o Body
v -0.500000 -0.500000 0.862400
v -0.500000 0.500000 0.862400
v -0.500000 -0.500000 -0.862400
v -0.500000 0.500000 -0.862400
v 0.500000 -0.500000 0.862400
v 0.500000 0.500000 0.862400
v 0.500000 -0.500000 -0.862400
v 0.500000 0.500000 -0.862400
v -0.609568 -0.609568 -0.000000
v -0.609568 -0.000000 1.051382
v -0.609568 0.609568 0.000000
v -0.609568 -0.000000 -1.051382
v 0.000000 -0.609568 -0.973809
v -0.000000 0.402467 -0.998189
v 0.609568 -0.000000 -1.051382
v 0.609568 -0.609568 0.000000
v 0.609568 0.609568 0.000000
v 0.609568 -0.000000 1.051382
v -0.000000 -0.609568 1.051382
v -0.000000 0.522040 1.051382
v -0.839506 0.000000 0.000000
v 0.000000 -0.034434 -1.320152
v 0.839506 0.000000 0.000000
v -0.000000 0.000000 1.579959
v 0.000000 -0.774454 0.000000
v -0.000000 0.766124 0.000000
v -0.250000 -0.554784 -0.956891
v -0.179098 0.404969 -0.998359
v -0.250000 -0.554784 0.956891
v -0.250000 0.511020 0.956891
v -0.218345 -0.033083 -1.208111
v -0.304784 0.000000 1.315671
v -0.304784 -0.692011 0.000000
v -0.304784 0.724537 0.000000
v 0.250000 -0.554784 -0.956891
v 0.179098 0.404969 -0.998359
v 0.250000 -0.554784 0.956891
v 0.250000 0.511020 0.956891
v 0.218345 -0.033083 -1.208111
v 0.304784 0.000000 1.315671
v 0.304784 -0.692011 0.000000
v 0.304784 0.724537 0.000000
v -0.000000 0.395907 -1.046555
v -0.000000 0.164745 -1.416863
v -0.169267 0.398234 -1.086185
v -0.206359 0.164891 -1.352929
v 0.169267 0.398234 -1.086185
v 0.206359 0.164891 -1.352929
v -0.000000 0.544633 -1.060415
v -0.000000 0.313472 -1.430723
v -0.158267 0.546960 -1.100045
v -0.181044 0.313617 -1.366789
v 0.158267 0.546960 -1.100045
v 0.181044 0.313617 -1.366789
v -0.000000 0.671481 -1.050696
v -0.000000 0.512179 -1.475257
v -0.171785 0.673652 -1.089740
v -0.172450 0.512463 -1.411276
v 0.171785 0.673652 -1.089740
v 0.172450 0.512463 -1.411276
v -0.000000 0.876003 -1.042907
v -0.000000 0.675662 -1.604111
v -0.216041 0.878733 -1.081685
v -0.216877 0.676018 -1.604745
v 0.216041 0.878733 -1.081685
v 0.216877 0.676018 -1.604745
v -0.000000 1.045501 -1.117769
v -0.000000 0.845160 -1.628743
v -0.216041 1.048232 -1.156546
v -0.216877 0.845517 -1.629377
v 0.216041 1.048232 -1.156546
v 0.216877 0.845517 -1.629377
v -0.000000 1.133224 -1.306937
v -0.000000 1.040069 -1.601204
v -0.150749 1.116693 -1.305828
v -0.151332 1.006547 -1.601617
v 0.150749 1.116693 -1.305828
v 0.151332 1.006547 -1.601617
v -0.172118 0.593057 -1.250508
v 0.254168 0.950318 -1.394582
v -0.169655 0.430289 -1.233417
v 0.243849 0.773932 -1.311571
v -0.187813 0.281562 -1.219557
v 0.172118 0.593057 -1.250508
v 0.169655 0.430289 -1.233417
v 0.198411 0.189404 -1.101578
v 0.187813 0.281563 -1.219557
v -0.151041 1.095438 -1.453722
v -0.243849 0.773932 -1.311571
v -0.254168 0.950318 -1.394582
v -0.198721 0.185943 -1.103235
v -0.000000 1.118488 -1.454070
v 0.151041 1.095438 -1.453722
vn -0.6471 -0.6567 0.3873
vn -0.6317 0.6681 0.3933
vn -0.6181 -0.6518 -0.4395
vn -0.5352 0.7140 -0.4514
vn 0.6471 -0.6567 0.3873
vn 0.6317 0.6681 0.3933
vn 0.6181 -0.6518 -0.4395
vn 0.5352 0.7140 -0.4514
vn -0.6868 -0.7268 -0.0000
vn -0.8133 0.0065 0.5818
vn -0.6517 0.7584 -0.0127
vn -0.7410 0.0203 -0.6712
vn -0.0000 -0.8266 -0.5627
vn -0.0000 0.9771 -0.2129
vn 0.7410 0.0203 -0.6712
vn 0.6868 -0.7268 -0.0000
vn 0.6517 0.7584 -0.0127
vn 0.8133 0.0065 0.5818
vn -0.0000 -0.8473 0.5312
vn -0.0000 0.8376 0.5463
vn -1.0000 -0.0000 -0.0000
vn -0.0000 -0.4944 -0.8692
vn 1.0000 -0.0000 -0.0000
vn -0.0000 0.0254 0.9997
vn -0.0000 -1.0000 -0.0031
vn -0.0000 0.9986 -0.0527
vn -0.3273 -0.7460 -0.5800
vn -0.3002 0.8433 -0.4459
vn -0.4132 -0.7853 0.4610
vn -0.3428 0.8012 0.4905
vn -0.5007 -0.2191 -0.8375
vn -0.5680 0.0245 0.8226
vn -0.2598 -0.9657 -0.0015
vn -0.1387 0.9897 -0.0363
vn 0.3273 -0.7460 -0.5800
vn 0.3002 0.8433 -0.4459
vn 0.4132 -0.7853 0.4610
vn 0.3428 0.8012 0.4905
vn 0.5006 -0.2191 -0.8375
vn 0.5680 0.0245 0.8226
vn 0.2598 -0.9657 -0.0015
vn 0.1387 0.9897 -0.0363
vn -0.0000 0.8277 0.5611
vn -0.0000 -0.2838 -0.9589
vn -0.8907 0.3895 0.2343
vn -0.7893 -0.1424 -0.5973
vn 0.8907 0.3897 0.2342
vn 0.7892 -0.1424 -0.5973
vn -0.0000 0.0061 1.0000
vn -0.0000 -0.1405 -0.9901
vn -0.7681 -0.0040 0.6403
vn -0.8176 -0.0117 -0.5757
vn 0.7681 -0.0040 0.6403
vn 0.8176 -0.0117 -0.5757
vn -0.0000 -0.0758 0.9971
vn -0.0000 -0.5098 -0.8603
vn -0.7010 -0.1574 0.6956
vn -0.8214 -0.3505 -0.4500
vn 0.7010 -0.1574 0.6956
vn 0.8214 -0.3505 -0.4500
vn -0.0000 0.1708 0.9853
vn -0.0000 -0.4497 -0.8932
vn -0.6984 0.0723 0.7120
vn -0.6410 -0.3993 -0.6555
vn 0.6984 0.0723 0.7120
vn 0.6410 -0.3993 -0.6555
vn -0.0000 0.6848 0.7288
vn -0.0000 0.0060 -1.0000
vn -0.6530 0.5820 0.4846
vn -0.6483 0.0763 -0.7576
vn 0.6530 0.5820 0.4846
vn 0.6483 0.0763 -0.7576
vn -0.0000 0.9895 0.1447
vn -0.0000 0.6080 -0.7940
vn -0.4471 0.8914 0.0744
vn -0.4417 0.5269 -0.7261
vn 0.4471 0.8914 0.0744
vn 0.4417 0.5269 -0.7261
vn -0.9849 -0.1495 0.0876
vn 0.9637 0.2491 -0.0961
vn -0.9981 0.0558 0.0268
vn 0.9864 -0.1467 0.0742
vn -0.9923 0.1236 -0.0041
vn 0.9849 -0.1495 0.0876
vn 0.9981 0.0558 0.0268
vn 0.7811 0.3242 -0.5337
vn 0.9923 0.1235 -0.0040
vn -0.5215 0.8035 -0.2871
vn -0.9864 -0.1467 0.0742
vn -0.9637 0.2491 -0.0961
vn -0.7814 0.3240 -0.5334
vn -0.0000 0.9515 -0.3077
vn 0.5215 0.8035 -0.2871
vt 0.375000 0.000000
vt 0.500000 0.000000
vt 0.500000 0.125000
vt 0.375000 0.125000
vt 0.625000 0.000000
vt 0.625000 0.125000
vt 0.625000 0.250000
vt 0.500000 0.250000
vt 0.375000 0.250000
vt 0.375000 0.312500
vt 0.500000 0.312500
vt 0.500000 0.375000
vt 0.375000 0.375000
vt 0.625000 0.437500
vt 0.563488 0.437500
vt 0.562500 0.437500
vt 0.500000 0.437500
vt 0.625000 0.500000
vt 0.500000 0.500000
vt 0.375000 0.437500
vt 0.375000 0.500000
vt 0.500000 0.625000
vt 0.375000 0.625000
vt 0.625000 0.625000
vt 0.625000 0.750000
vt 0.500000 0.750000
vt 0.375000 0.750000
vt 0.375000 0.812500
vt 0.500000 0.812500
vt 0.500000 0.875000
vt 0.375000 0.875000
vt 0.625000 0.812500
vt 0.625000 0.875000
vt 0.500000 0.937500
vt 0.625000 0.937500
vt 0.625000 1.000000
vt 0.500000 1.000000
vt 0.375000 0.937500
vt 0.375000 1.000000
vt 0.187500 0.500000
vt 0.250000 0.500000
vt 0.250000 0.625000
vt 0.187500 0.625000
vt 0.312500 0.500000
vt 0.312500 0.625000
vt 0.312500 0.750000
vt 0.250000 0.750000
vt 0.187500 0.750000
vt 0.687500 0.500000
vt 0.750000 0.500000
vt 0.750000 0.625000
vt 0.687500 0.625000
vt 0.812500 0.500000
vt 0.875000 0.500000
vt 0.875000 0.625000
vt 0.812500 0.625000
vt 0.875000 0.750000
vt 0.812500 0.750000
vt 0.750000 0.750000
vt 0.687500 0.750000
vt 0.125000 0.625000
vt 0.125000 0.750000
vt 0.125000 0.500000
vt 0.625000 0.312500
vt 0.562500 0.312500
vt 0.562500 0.312500
vt 0.562500 0.375000
vt 0.625000 0.375000
s 1
usemtl Body
f 1/1/1 10/2/10 21/3/21 9/4/9
f 10/2/10 2/5/2 11/6/11 21/3/21
f 21/3/21 11/6/11 4/7/4 12/8/12
f 9/4/9 21/3/21 12/8/12 3/9/3
f 27/10/27 31/11/31 22/12/22 13/13/13
f 36/14/36 86/15/86 87/16/87 47/14/47
f 39/17/39 86/15/86 36/14/36 8/18/8 15/19/15
f 35/20/35 39/17/39 15/19/15 7/21/7
f 7/21/7 15/19/15 23/22/23 16/23/16
f 15/19/15 8/18/8 17/24/17 23/22/23
f 23/22/23 17/24/17 6/25/6 18/26/18
f 16/23/16 23/22/23 18/26/18 5/27/5
f 37/28/37 40/29/40 24/30/24 19/31/19
f 40/29/40 38/32/38 20/33/20 24/30/24
f 32/34/32 30/35/30 2/36/2 10/37/10
f 29/38/29 32/34/32 10/37/10 1/39/1
f 27/40/27 13/41/13 25/42/25 33/43/33
f 35/44/35 7/21/7 16/23/16 41/45/41
f 41/45/41 16/23/16 5/27/5 37/46/37
f 33/43/33 25/42/25 19/47/19 29/48/29
f 36/49/36 14/50/14 26/51/26 42/52/42
f 28/53/28 4/54/4 11/55/11 34/56/34
f 34/56/34 11/55/11 2/57/2 30/58/30
f 42/52/42 26/51/26 20/59/20 38/60/38
f 26/51/26 34/56/34 30/58/30 20/59/20
f 14/50/14 28/53/28 34/56/34 26/51/26
f 9/61/9 33/43/33 29/48/29 1/62/1
f 3/63/3 27/40/27 33/43/33 9/61/9
f 19/31/19 24/30/24 32/34/32 29/38/29
f 24/30/24 20/33/20 30/35/30 32/34/32
f 12/8/12 4/7/4 28/64/28 91/65/91 31/11/31
f 3/9/3 12/8/12 31/11/31 27/10/27
f 17/24/17 42/52/42 38/60/38 6/25/6
f 8/18/8 36/49/36 42/52/42 17/24/17
f 25/42/25 41/45/41 37/46/37 19/47/19
f 13/41/13 35/44/35 41/45/41 25/42/25
f 18/26/18 6/25/6 38/32/38 40/29/40
f 5/27/5 18/26/18 40/29/40 37/28/37
f 13/13/13 22/12/22 39/17/39 35/20/35
f 22/12/22 31/11/31 46/11/46 44/12/44
f 44/12/44 46/11/46 52/11/52 50/12/50
f 48/17/48 44/12/44 50/12/50 54/17/54
f 31/11/31 91/65/91 83/66/83 46/11/46
f 14/50/14 36/49/36 47/49/47 43/50/43
f 28/53/28 14/50/14 43/50/43 45/53/45
f 39/17/39 22/12/22 44/12/44 48/17/48
f 49/50/49 53/49/53 59/49/59 55/50/55
f 51/53/51 49/50/49 55/50/55 57/53/57
f 47/14/47 87/16/87 85/16/85 53/14/53
f 46/11/46 83/66/83 81/66/81 52/11/52
f 45/53/45 43/50/43 49/50/49 51/53/51
f 43/50/43 47/49/47 53/49/53 49/50/49
f 59/14/59 84/16/84 82/16/82 65/14/65
f 56/12/56 58/11/58 64/11/64 62/12/62
f 54/17/54 50/12/50 56/12/56 60/17/60
f 50/12/50 52/11/52 58/11/58 56/12/56
f 53/14/53 85/16/85 84/16/84 59/14/59
f 52/11/52 81/66/81 79/66/79 58/11/58
f 58/11/58 79/66/79 89/66/89 64/11/64
f 57/53/57 55/50/55 61/50/61 63/53/63
f 55/50/55 59/49/59 65/49/65 61/50/61
f 60/17/60 56/12/56 62/12/62 66/17/66
f 67/50/67 71/49/71 77/49/77 73/50/73
f 69/53/69 67/50/67 73/50/73 75/53/75
f 65/14/65 82/16/82 80/16/80 71/14/71
f 64/11/64 89/66/89 90/66/90 70/11/70
f 63/53/63 61/50/61 67/50/67 69/53/69
f 61/50/61 65/49/65 71/49/71 67/50/67
f 76/11/76 88/66/88 92/67/92 74/12/74
f 74/12/74 92/67/92 93/16/93 78/17/78
f 72/17/72 68/12/68 74/12/74 78/17/78
f 68/12/68 70/11/70 76/11/76 74/12/74
f 71/14/71 80/16/80 93/16/93 77/14/77
f 70/11/70 90/66/90 88/66/88 76/11/76
f 64/11/64 70/11/70 68/12/68 72/17/72 66/17/66 62/12/62
f 83/66/83 91/65/91 28/64/28 45/64/45
f 92/67/92 88/66/88 75/64/75 73/68/73
f 82/16/82 84/16/84 60/17/60 66/17/66
f 93/16/93 92/67/92 73/68/73 77/14/77
f 93/16/93 80/16/80 72/17/72 78/17/78
f 84/16/84 85/16/85 54/17/54 60/17/60
f 88/66/88 90/66/90 69/64/69 75/64/75
f 80/16/80 82/16/82 66/17/66 72/17/72
f 85/16/85 87/16/87 48/17/48 54/17/54
f 90/66/90 89/66/89 63/64/63 69/64/69
f 81/66/81 83/66/83 45/64/45 51/64/51
f 79/66/79 81/66/81 51/64/51 57/64/57
f 87/16/87 86/15/86 39/17/39 48/17/48
f 89/66/89 79/66/79 57/64/57 63/64/63
o Wings
v 0.720145 0.347517 -0.599398
v 0.720145 -0.347517 -0.599398
v 0.773843 0.277087 0.460086
v 0.773843 -0.325059 0.460086
v 0.849996 0.423671 0.000000
v 0.796298 0.000000 -0.730747
v 0.849996 -0.423671 -0.000000
v 0.849996 -0.047972 0.730747
v 0.426325 0.337806 0.591435
v 0.426325 -0.385778 0.591435
v 0.526965 0.423671 -0.730747
v 0.526965 -0.423671 -0.730747
v 1.009811 -0.000000 -0.000000
v 0.426325 -0.047972 1.006396
v 0.584975 -0.000000 -0.947223
v 0.426325 0.583486 -0.000000
v 0.426325 -0.583486 -0.000000
v -0.720145 0.347517 -0.599398
v -0.720145 -0.347517 -0.599398
v -0.773843 0.277087 0.460086
v -0.773843 -0.325059 0.460086
v -0.849996 0.423671 0.000000
v -0.796298 0.000000 -0.730747
v -0.849996 -0.423671 -0.000000
v -0.849996 -0.047972 0.730747
v -0.426325 0.337806 0.591435
v -0.426325 -0.385778 0.591435
v -0.526965 0.423671 -0.730747
v -0.526965 -0.423671 -0.730747
v -1.009811 -0.000000 -0.000000
v -0.426325 -0.047972 1.006396
v -0.584975 -0.000000 -0.947223
v -0.426325 0.583486 -0.000000
v -0.426325 -0.583486 -0.000000
vn -0.6912 -0.6182 0.3742
vn -0.6912 0.6182 0.3742
vn -0.6187 -0.6669 -0.4153
vn -0.6148 0.7022 -0.3591
vn -0.7060 -0.7067 -0.0449
vn -0.8447 -0.0000 0.5352
vn -0.7080 0.7061 -0.0130
vn -0.7572 0.0332 -0.6523
vn 0.5399 -0.7272 -0.4239
vn 0.5426 0.7556 -0.3670
vn 0.3749 -0.7276 0.5745
vn 0.3749 0.7276 0.5745
vn -0.9998 -0.0054 0.0179
vn 0.3908 0.0288 -0.9200
vn 0.2348 -0.0000 0.9720
vn 0.5223 -0.8524 -0.0227
vn 0.5298 0.8480 0.0122
vn 0.6912 -0.6182 0.3742
vn 0.6912 0.6182 0.3742
vn 0.6187 -0.6669 -0.4153
vn 0.6148 0.7022 -0.3591
vn 0.7060 -0.7067 -0.0449
vn 0.8447 -0.0000 0.5352
vn 0.7080 0.7061 -0.0130
vn 0.7572 0.0332 -0.6523
vn -0.5399 -0.7272 -0.4239
vn -0.5426 0.7556 -0.3670
vn -0.3749 -0.7276 0.5745
vn -0.3749 0.7276 0.5745
vn 0.9998 -0.0054 0.0179
vn -0.3908 0.0288 -0.9200
vn -0.2348 -0.0000 0.9720
vn -0.5223 -0.8524 -0.0227
vn -0.5298 0.8480 0.0122
vt 0.375000 0.000000
vt 0.500000 0.000000
vt 0.500000 0.125000
vt 0.375000 0.125000
vt 0.625000 0.000000
vt 0.625000 0.125000
vt 0.625000 0.250000
vt 0.500000 0.250000
vt 0.375000 0.250000
vt 0.500000 0.375000
vt 0.375000 0.375000
vt 0.625000 0.375000
vt 0.750000 0.500000
vt 0.750000 0.625000
vt 0.750000 0.750000
vt 0.500000 0.875000
vt 0.375000 0.875000
vt 0.250000 0.625000
vt 0.250000 0.500000
vt 0.625000 0.875000
vt 0.625000 1.000000
vt 0.500000 1.000000
vt 0.375000 1.000000
vt 0.125000 0.500000
vt 0.125000 0.625000
vt 0.250000 0.750000
vt 0.125000 0.750000
vt 0.875000 0.500000
vt 0.875000 0.625000
vt 0.875000 0.750000
s 1
usemtl Body
f 94/69/94 99/70/99 106/71/106 98/72/98
f 99/70/99 95/73/95 100/74/100 106/71/106
f 106/71/106 100/74/100 97/75/97 101/76/101
f 98/72/98 106/71/106 101/76/101 96/77/96
f 96/77/96 101/76/101 107/78/107 102/79/102
f 101/76/101 97/75/97 103/80/103 107/78/107
f 103/81/103 110/82/110 105/83/105 108/84/108 104/85/104 109/86/109 102/87/102 107/78/107
f 108/84/108 105/88/105 95/89/95 99/90/99
f 104/85/104 108/84/108 99/90/99 94/91/94
f 96/92/96 102/87/102 109/86/109 98/93/98
f 98/93/98 109/86/109 104/94/104 94/95/94
f 103/81/103 97/96/97 100/97/100 110/82/110
f 110/82/110 100/97/100 95/98/95 105/83/105
f 111/69/111 115/72/115 123/71/123 116/70/116
f 116/70/116 123/71/123 117/74/117 112/73/112
f 123/71/123 118/76/118 114/75/114 117/74/117
f 115/72/115 113/77/113 118/76/118 123/71/123
f 113/77/113 119/79/119 124/78/124 118/76/118
f 118/76/118 124/78/124 120/80/120 114/75/114
f 120/81/120 124/78/124 119/87/119 126/86/126 121/85/121 125/84/125 122/83/122 127/82/127
f 125/84/125 116/90/116 112/89/112 122/88/122
f 121/85/121 111/91/111 116/90/116 125/84/125
f 113/92/113 115/93/115 126/86/126 119/87/119
f 115/93/115 111/95/111 121/94/121 126/86/126
f 120/81/120 127/82/127 117/97/117 114/96/114
f 127/82/127 122/83/122 112/98/112 117/97/117
o Beak
v -0.146493 0.669384 -1.576567
v -0.146493 0.878775 -1.576567
v -0.146493 0.680708 -1.869553
v -0.146493 0.795992 -1.869553
v 0.146493 0.669384 -1.576567
v 0.146493 0.878775 -1.576567
v 0.146493 0.680708 -1.869553
v 0.146493 0.795992 -1.869553
vn -1.0000 -0.0000 -0.0000
vn -0.0000 -0.0000 -1.0000
vn 1.0000 -0.0000 -0.0000
vn -0.0000 -0.0000 1.0000
vn -0.0000 -0.9993 -0.0386
vn -0.0000 0.9623 -0.2719
vt 0.375000 0.000000
vt 0.625000 0.000000
vt 0.625000 0.250000
vt 0.375000 0.250000
vt 0.625000 0.500000
vt 0.375000 0.500000
vt 0.625000 0.750000
vt 0.375000 0.750000
vt 0.625000 1.000000
vt 0.375000 1.000000
vt 0.125000 0.500000
vt 0.125000 0.750000
vt 0.875000 0.500000
vt 0.875000 0.750000
s 0
usemtl Beak
f 128/99/128 129/100/128 131/101/128 130/102/128
f 130/102/129 131/101/129 135/103/129 134/104/129
f 134/104/130 135/103/130 133/105/130 132/106/130
f 132/106/131 133/105/131 129/107/131 128/108/131
f 130/109/132 134/104/132 132/106/132 128/110/132
f 135/103/133 131/111/133 129/112/133 133/105/133
o Eyes
v 0.241892 0.871546 -1.529926
v 0.240090 0.934930 -1.528838
v 0.250402 0.870710 -1.467167
v 0.248600 0.934095 -1.466079
v 0.246475 0.859581 -1.498745
v 0.239441 0.903390 -1.540815
v 0.244017 0.946059 -1.497260
v 0.251052 0.902250 -1.455190
v 0.245246 0.902820 -1.498003
v 0.232737 0.871264 -1.528688
v 0.230935 0.934649 -1.527600
v 0.241247 0.870429 -1.465930
v 0.239445 0.933813 -1.464841
v 0.237320 0.859299 -1.497507
v 0.230286 0.903109 -1.539577
v 0.234862 0.945778 -1.496023
v 0.241897 0.901969 -1.453953
v 0.236091 0.902539 -1.496765
v -0.241892 0.871546 -1.529926
v -0.240090 0.934930 -1.528838
v -0.250402 0.870710 -1.467167
v -0.248600 0.934095 -1.466079
v -0.246475 0.859581 -1.498745
v -0.239441 0.903390 -1.540814
v -0.244017 0.946059 -1.497260
v -0.251051 0.902250 -1.455190
v -0.245246 0.902820 -1.498002
v -0.232737 0.871264 -1.528688
v -0.230935 0.934649 -1.527600
v -0.241247 0.870429 -1.465929
v -0.239445 0.933813 -1.464841
v -0.237320 0.859299 -1.497507
v -0.230286 0.903109 -1.539577
v -0.234862 0.945778 -1.496022
v -0.241896 0.901969 -1.453953
v -0.236091 0.902539 -1.496765
vn 0.9905 0.0305 -0.1339
vn -0.9905 -0.0305 0.1339
vn 0.0727 -0.9434 0.3235
vn -0.0194 -0.9344 -0.3557
vn -0.1165 -0.3294 -0.9370
vn -0.1360 0.3541 -0.9253
vn -0.0727 0.9434 -0.3235
vn 0.0194 0.9344 0.3557
vn 0.1165 0.3294 0.9370
vn 0.1360 -0.3541 0.9253
vn -0.9905 0.0305 -0.1339
vn 0.9905 -0.0305 0.1339
vn -0.0727 -0.9434 0.3235
vn 0.0194 -0.9344 -0.3557
vn 0.1165 -0.3294 -0.9370
vn 0.1360 0.3542 -0.9253
vn 0.0727 0.9434 -0.3235
vn -0.0194 0.9344 0.3557
vn -0.1165 0.3294 0.9370
vn -0.1360 -0.3541 0.9253
vt 0.000000 0.000000
vt 0.500000 0.000000
vt 0.500000 0.500000
vt 0.000000 0.500000
vt 1.000000 0.000000
vt 1.000000 0.500000
vt 1.000000 1.000000
vt 0.500000 1.000000
vt 0.000000 1.000000
s 0
usemtl Eyes
f 136/113/134 141/114/134 144/115/134 140/116/134
f 141/114/134 137/117/134 142/118/134 144/115/134
f 144/115/134 142/118/134 139/119/134 143/120/134
f 140/116/134 144/115/134 143/120/134 138/121/134
f 145/113/135 149/116/135 153/115/135 150/114/135
f 150/114/135 153/115/135 151/118/135 146/117/135
f 153/115/135 152/120/135 148/119/135 151/118/135
f 149/116/135 147/121/135 152/120/135 153/115/135
f 140/116/136 138/121/136 147/121/136 149/116/136
f 136/113/137 140/116/137 149/116/137 145/113/137
f 141/114/138 136/113/138 145/113/138 150/114/138
f 137/117/139 141/114/139 150/114/139 146/117/139
f 142/118/140 137/117/140 146/117/140 151/118/140
f 139/119/141 142/118/141 151/118/141 148/119/141
f 143/120/142 139/119/142 148/119/142 152/120/142
f 138/121/143 143/120/143 152/120/143 147/121/143
f 154/113/144 158/116/144 162/115/144 159/114/144
f 159/114/144 162/115/144 160/118/144 155/117/144
f 162/115/144 161/120/144 157/119/144 160/118/144
f 158/116/144 156/121/144 161/120/144 162/115/144
f 163/113/145 168/114/145 171/115/145 167/116/145
f 168/114/145 164/117/145 169/118/145 171/115/145
f 171/115/145 169/118/145 166/119/145 170/120/145
f 167/116/145 171/115/145 170/120/145 165/121/145
f 158/116/146 167/116/146 165/121/146 156/121/146
f 154/113/147 163/113/147 167/116/147 158/116/147
f 159/114/148 168/114/148 163/113/148 154/113/148
f 155/117/149 164/117/149 168/114/149 159/114/149
f 160/118/150 169/118/150 164/117/150 155/117/150
f 157/119/151 166/119/151 169/118/151 160/118/151
f 161/120/152 170/120/152 166/119/152 157/119/152
f 156/121/153 165/121/153 170/120/153 161/120/153
